GIL08_free1_ik
nRows=3
nColumns=375

# SIMM Motion File Header:
name GIL08_free1_ik
datacolumns 375
datarows 3
otherdata 1
range 0.66667000 0.68333000
endheader
time	pelvis_tx	pelvis_ty	pelvis_tz	pelvis_tilt	pelvis_list	pelvis_rotation	hip_flexion_r	hip_adduction_r	hip_rotation_r	knee_angle_r	ankle_angle_r	hip_flexion_l	hip_adduction_l	hip_rotation_l	knee_angle_l	ankle_angle_l	lumbar_extension	lumbar_bending	lumbar_rotation	subtalar_angle_r	mtp_angle_r	subtalar_angle_l	mtp_angle_l	asis_r_px	asis_r_py	asis_r_pz	asis_l_px	asis_l_py	asis_l_pz	midasis_px	midasis_py	midasis_pz	psis_r_px	psis_r_py	psis_r_pz	psis_l_px	psis_l_py	psis_l_pz	hip_r_px	hip_r_py	hip_r_pz	hip_l_px	hip_l_py	hip_l_pz	midhip_px	midhip_py	midhip_pz	epicondLat_r_px	epicondLat_r_py	epicondLat_r_pz	epicondMed_r_px	epicondMed_r_py	epicondMed_r_pz	thighwand_r_px	thighwand_r_py	thighwand_r_pz	upperleg1_r_px	upperleg1_r_py	upperleg1_r_pz	upperleg2_r_px	upperleg2_r_py	upperleg2_r_pz	malleolusLat_r_px	malleolusLat_r_py	malleolusLat_r_pz	malleolusMedv_r_px	malleolusMedv_r_py	malleolusMedv_r_pz	shankwand_r_px	shankwand_r_py	shankwand_r_pz	lowerleg1_r_px	lowerleg1_r_py	lowerleg1_r_pz	knee_r_px	knee_r_py	knee_r_pz	ankle_r_px	ankle_r_py	ankle_r_pz	toe_r_px	toe_r_py	toe_r_pz	epicondLat_l_px	epicondLat_l_py	epicondLat_l_pz	epicondMed_l_px	epicondMed_l_py	epicondMed_l_pz	thighwand_l_px	thighwand_l_py	thighwand_l_pz	upperleg1_l_px	upperleg1_l_py	upperleg1_l_pz	upperleg2_l_px	upperleg2_l_py	upperleg2_l_pz	malleolusLat_l_px	malleolusLat_l_py	malleolusLat_l_pz	malleolusMedv_l_px	malleolusMedv_l_py	malleolusMedv_l_pz	shankwand_l_px	shankwand_l_py	shankwand_l_pz	lowerleg1_l_px	lowerleg1_l_py	lowerleg1_l_pz	knee_l_px	knee_l_py	knee_l_pz	ankle_l_px	ankle_l_py	ankle_l_pz	toe_l_px	toe_l_py	toe_l_pz	subclavicle_r_px	subclavicle_r_py	subclavicle_r_pz	subclavicle_l_px	subclavicle_l_py	subclavicle_l_pz	neck_px	neck_py	neck_pz	sternalnotch_px	sternalnotch_py	sternalnotch_pz	xyphoidprocess_px	xyphoidprocess_py	xyphoidprocess_pz	midhip_tx	midhip_ty	midhip_tz	hip_r_tx	hip_r_ty	hip_r_tz	hip_l_tx	hip_l_ty	hip_l_tz	knee_r_tx	knee_r_ty	knee_r_tz	knee_l_tx	knee_l_ty	knee_l_tz	ankle_r_tx	ankle_r_ty	ankle_r_tz	ankle_l_tx	ankle_l_ty	ankle_l_tz	midasis_tx	midasis_ty	midasis_tz	asis_r_tx	asis_r_ty	asis_r_tz	asis_l_tx	asis_l_ty	asis_l_tz	psis_r_tx	psis_r_ty	psis_r_tz	psis_l_tx	psis_l_ty	psis_l_tz	epicondLat_r_tx	epicondLat_r_ty	epicondLat_r_tz	epicondLat_l_tx	epicondLat_l_ty	epicondLat_l_tz	epicondMed_r_tx	epicondMed_r_ty	epicondMed_r_tz	epicondMed_l_tx	epicondMed_l_ty	epicondMed_l_tz	malleolusLat_r_tx	malleolusLat_r_ty	malleolusLat_r_tz	malleolusLat_l_tx	malleolusLat_l_ty	malleolusLat_l_tz	malleolusMedv_r_tx	malleolusMedv_r_ty	malleolusMedv_r_tz	malleolusMedv_l_tx	malleolusMedv_l_ty	malleolusMedv_l_tz	neck_tx	neck_ty	neck_tz	subclavicle_r_tx	subclavicle_r_ty	subclavicle_r_tz	subclavicle_l_tx	subclavicle_l_ty	subclavicle_l_tz	sternalnotch_tx	sternalnotch_ty	sternalnotch_tz	xyphoidprocess_tx	xyphoidprocess_ty	xyphoidprocess_tz	thighwand_r_tx	thighwand_r_ty	thighwand_r_tz	thighwand_l_tx	thighwand_l_ty	thighwand_l_tz	upperleg1_r_tx	upperleg1_r_ty	upperleg1_r_tz	upperleg1_l_tx	upperleg1_l_ty	upperleg1_l_tz	upperleg2_r_tx	upperleg2_r_ty	upperleg2_r_tz	upperleg2_l_tx	upperleg2_l_ty	upperleg2_l_tz	shankwand_r_tx	shankwand_r_ty	shankwand_r_tz	shankwand_l_tx	shankwand_l_ty	shankwand_l_tz	lowerleg1_r_tx	lowerleg1_r_ty	lowerleg1_r_tz	lowerleg1_l_tx	lowerleg1_l_ty	lowerleg1_l_tz	toe_r_tx	toe_r_ty	toe_r_tz	toe_l_tx	toe_l_ty	toe_l_tz	ground_force_vx	ground_force_vy	ground_force_vz	ground_force_px	ground_force_py	ground_force_pz	ground_force_vx	ground_force_vy	ground_force_vz	ground_force_px	ground_force_py	ground_force_pz	ground_torque_x	ground_torque_y	ground_torque_z	ground_torque_x	ground_torque_y	ground_torque_z	ground_marker_px	ground_marker_py	ground_marker_pz	ground_marker_px	ground_marker_py	ground_marker_pz	ground_marker_px	ground_marker_py	ground_marker_pz	ground_marker_px	ground_marker_py	ground_marker_pz	ground_marker_px	ground_marker_py	ground_marker_pz	ground_marker_px	ground_marker_py	ground_marker_pz	ground_marker_px	ground_marker_py	ground_marker_pz	ground_marker_px	ground_marker_py	ground_marker_pz	ground_marker_px	ground_marker_py	ground_marker_pz	ground_marker_px	ground_marker_py	ground_marker_pz	ground_marker_px	ground_marker_py	ground_marker_pz	ground_marker_px	ground_marker_py	ground_marker_pz	ground_marker_px	ground_marker_py	ground_marker_pz	ground_marker_px	ground_marker_py	ground_marker_pz	ground_marker_px	ground_marker_py	ground_marker_pz	ground_marker_px	ground_marker_py	ground_marker_pz	ground_marker_px	ground_marker_py	ground_marker_pz	ground_marker_px	ground_marker_py	ground_marker_pz	ground_marker_px	ground_marker_py	ground_marker_pz	ground_marker_px	ground_marker_py	ground_marker_pz	ground_marker_px	ground_marker_py	ground_marker_pz	ground_marker_px	ground_marker_py	ground_marker_pz	ground_marker_px	ground_marker_py	ground_marker_pz	ground_marker_px	ground_marker_py	ground_marker_pz	ground_marker_px	ground_marker_py	ground_marker_pz	ground_marker_px	ground_marker_py	ground_marker_pz	ground_marker_px	ground_marker_py	ground_marker_pz	ground_marker_px	ground_marker_py	ground_marker_pz	ground_marker_px	ground_marker_py	ground_marker_pz	ground_marker_px	ground_marker_py	ground_marker_pz	ground_marker_px	ground_marker_py	ground_marker_pz	ground_marker_px	ground_marker_py	ground_marker_pz	ground_marker_px	ground_marker_py	ground_marker_pz	ground_marker_px	ground_marker_py	ground_marker_pz	ground_marker_px	ground_marker_py	ground_marker_pz	ground_marker_px	ground_marker_py	ground_marker_pz	ground_marker_px	ground_marker_py	ground_marker_pz
      0.66667000	      1.94550742	      0.93114426	     -0.25721248	      4.74439512	     -2.02737361	      8.48996990	     21.23457820	      0.68244918	      4.35161904	    -20.33413390	     -5.58715717	    -18.49815195	     -5.04071309	      4.78771884	    -26.81410316	      2.87751461	     -7.35488601	      6.12573951	      1.43015996	      0.00000000	      0.00000000	      0.00000000	      0.00000000	      2.00605668	      0.95903049	     -0.16682791	      1.96804686	      0.95225440	     -0.37625319	      1.95699365	      0.93203651	     -0.25893112	      1.79496533	      0.95236428	     -0.19215129	      1.77686145	      0.95012389	     -0.27841515	      1.90206860	      0.87513530	     -0.17791818	      1.88202727	      0.86859357	     -0.31525731	      1.89204794	      0.87186443	     -0.24658775	      2.14529389	      0.50717666	     -0.15483714	      2.08894452	      0.50579924	     -0.26142625	      2.14224630	      0.63501100	     -0.08629230	      2.10865538	      0.68752722	     -0.15658894	      2.13809601	      0.61193906	     -0.18064963	      2.12327386	      0.06970950	     -0.12731085	      2.10773925	      0.06429230	     -0.19384817	      2.15491667	      0.14802892	     -0.07307779	      2.12350758	      0.20131470	     -0.13311931	      2.08068078	      0.50077192	     -0.19107680	      2.12291822	      0.08658987	     -0.17110379	      2.23325746	      0.04617623	     -0.19512694	      1.80474197	      0.44149566	     -0.39241516	      1.79512295	      0.44981737	     -0.28494559	      1.97873937	      0.54141952	     -0.34183277	      1.91832288	      0.61760459	     -0.37533579	      1.88771804	      0.53639433	     -0.37567343	      1.48389781	      0.14148299	     -0.35148610	      1.50063344	      0.13919690	     -0.28371506	      1.64221330	      0.14642597	     -0.31973613	      1.62557257	      0.22914729	     -0.32724233	      1.77987352	      0.46544283	     -0.31809589	      1.50621780	      0.15110867	     -0.31207290	      1.57487910	      0.04052639	     -0.33303618	      1.92111976	      1.33544670	     -0.14726533	      1.90256517	      1.34890790	     -0.30121622	      1.81031999	      1.41154934	     -0.21661349	      1.89911172	      1.34338416	     -0.22660529	      1.94088668	      1.14487640	     -0.25572653	      1.88962800	      0.87027800	     -0.24457600	      1.89482700	      0.85807500	     -0.18950200	      1.87980200	      0.85541600	     -0.29497400	      2.07654300	      0.48743300	     -0.20331600	      1.77772900	      0.45397300	     -0.31249800	      2.12069100	      0.07025100	     -0.19175900	      1.50001300	      0.13440600	     -0.29643400	      1.96453200	      0.95386500	     -0.25568600	      1.97917700	      0.95645600	     -0.15288600	      1.94988700	      0.95127300	     -0.35848600	      1.77072600	      0.97894200	     -0.19044800	      1.75854400	      0.98008500	     -0.27503500	      2.08890900	      0.49133200	     -0.14524500	      1.77575200	      0.45706800	     -0.37188400	      2.05640600	      0.49707900	     -0.26226000	      1.78729200	      0.45189200	     -0.26066300	      2.12183400	      0.07142300	     -0.15379400	      1.49442600	      0.13730200	     -0.33543000	      2.11760000	      0.07427300	     -0.22443600	      1.51143500	      0.14314200	     -0.26792600	      1.81308800	      1.43417300	     -0.21494500	      1.92390700	      1.35873200	     -0.14700600	      1.90287900	      1.36981000	     -0.30242000	      1.90062900	      1.36553600	     -0.22690400	      1.94048000	      1.16621500	     -0.25332700	      2.08012700	      0.59672300	     -0.06129800	      1.95929500	      0.54600600	     -0.33915200	      2.07131600	      0.66151100	     -0.13149500	      1.89291200	      0.62260400	     -0.36642600	      2.09649700	      0.58563400	     -0.15840900	      1.86548800	      0.54045900	     -0.36241800	      2.13557300	      0.15185500	     -0.09177800	      1.64944700	      0.15707100	     -0.30438300	      2.10557100	      0.20383700	     -0.15169000	      1.62973700	      0.23684300	     -0.31207700	      2.24348100	      0.04502300	     -0.21669700	      1.58158900	      0.04163400	     -0.28709600	    -96.64664616	    443.00089962	      5.55444416	      2.12923218	      0.00000000	     -0.18853510	     79.75277483	    284.04022146	     -5.61908395	      1.59086389	      0.00000000	     -0.28096570	      0.00000000	      0.92368927	      0.00000000	      0.00000000	      0.52420471	      0.00000000	      1.88962770	      0.87027788	     -0.24457601	      1.89482749	      0.85807496	     -0.18950166	      1.87980163	      0.85541636	     -0.29497352	      2.07654333	      0.48743343	     -0.20331553	      1.77772915	      0.45397267	     -0.31249776	      2.12069130	      0.07025091	     -0.19175898	      1.50001347	      0.13440643	     -0.29643413	      1.96453190	      0.95386469	     -0.25568622	      1.97917712	      0.95645595	     -0.15288612	      1.94988668	      0.95127344	     -0.35848635	      1.77072585	      0.97894216	     -0.19044751	      1.75854385	      0.98008496	     -0.27503532	      2.08890891	      0.49133170	     -0.14524534	      1.77575159	      0.45706788	     -0.37188432	      2.05640578	      0.49707931	     -0.26226029	      1.78729188	      0.45189232	     -0.26066288	      2.12183380	      0.07142349	     -0.15379424	      1.49442601	      0.13730197	     -0.33542961	      2.11759973	      0.07427320	     -0.22443606	      1.51143527	      0.14314197	     -0.26792628	      1.81308842	      1.43417335	     -0.21494535	      1.92390704	      1.35873246	     -0.14700621	      1.90287864	      1.36981046	     -0.30241978	      1.90062940	      1.36553645	     -0.22690393	      1.94048023	      1.16621470	     -0.25332719	      2.08012700	      0.59672332	     -0.06129754	      1.95929468	      0.54600590	     -0.33915153	      2.07131553	      0.66151148	     -0.13149501	      1.89291167	      0.62260401	     -0.36642575	      2.09649706	      0.58563352	     -0.15840857	      1.86548769	      0.54045916	     -0.36241788	      2.13557315	      0.15185475	     -0.09177821	      1.64944720	      0.15707114	     -0.30438259	      2.10557079	      0.20383717	     -0.15168990	      1.62973750	      0.23684315	     -0.31207651	      2.24348092	      0.04502341	     -0.21669722	      1.58158946	      0.04163432	     -0.28709573
      0.67500000	      1.95681062	      0.93284237	     -0.25660901	      4.92397678	     -2.31214932	      8.53591840	     20.76339463	      1.28684961	      4.67021690	    -21.16426661	     -4.80176552	    -18.00699413	     -5.65815959	      4.04487688	    -28.53432211	     -0.23269301	     -7.35800018	      6.54616024	      1.32046337	      0.00000000	      0.00000000	      0.00000000	      0.00000000	      2.01730661	      0.96136978	     -0.16638902	      1.97924014	      0.95342441	     -0.37576290	      1.96829339	      0.93376162	     -0.25833656	      1.80622757	      0.95392155	     -0.19159683	      1.78809866	      0.95119191	     -0.27784134	      1.91357540	      0.87709770	     -0.17701775	      1.89350340	      0.86980436	     -0.31431454	      1.90353940	      0.87345103	     -0.24566614	      2.15463676	      0.50756458	     -0.15653525	      2.09726799	      0.50663749	     -0.26258408	      2.15306412	      0.63535912	     -0.08786660	      2.11914441	      0.68814827	     -0.15780001	      2.14786779	      0.61239239	     -0.18219779	      2.12412387	      0.06988656	     -0.12772980	      2.10791257	      0.06463502	     -0.19411880	      2.15782959	      0.14766542	     -0.07396366	      2.12700753	      0.20144538	     -0.13386864	      2.08983827	      0.50158349	     -0.19220722	      2.12373984	      0.08666895	     -0.17156014	      2.23362253	      0.04546648	     -0.19632448	      1.81977352	      0.44269328	     -0.39480680	      1.81123857	      0.44987581	     -0.28716364	      1.99327534	      0.54392328	     -0.34512726	      1.93171904	      0.61979771	     -0.37723118	      1.90194787	      0.53828139	     -0.37803297	      1.49302272	      0.14752731	     -0.35262082	      1.51048238	      0.14434473	     -0.28506896	      1.65175690	      0.14909803	     -0.32266615	      1.63666490	      0.23218987	     -0.32930338	      1.79568659	      0.46532895	     -0.32001401	      1.51597639	      0.15638229	     -0.31339131	      1.57626888	      0.04103527	     -0.33441878	      1.93139173	      1.33682870	     -0.14608850	      1.91310390	      1.35058027	     -0.30004564	      1.82057873	      1.41286660	     -0.21548650	      1.90951931	      1.34489208	     -0.22545326	      1.95172856	      1.14652637	     -0.25491423	      1.90203600	      0.87293500	     -0.24436500	      1.90632100	      0.85966500	     -0.18795800	      1.89113300	      0.85645500	     -0.29339200	      2.08554600	      0.48800700	     -0.20419800	      1.79311600	      0.45368300	     -0.31373300	      2.12131400	      0.07013500	     -0.19212000	      1.50947400	      0.13935200	     -0.29780400	      1.97560900	      0.95536100	     -0.25471200	      1.99039700	      0.95848600	     -0.15205800	      1.96082100	      0.95223600	     -0.35736700	      1.78171400	      0.98004500	     -0.19026400	      1.76938600	      0.98084100	     -0.27487000	      2.09858300	      0.49176300	     -0.14626500	      1.79040300	      0.45733900	     -0.37305800	      2.06620300	      0.49883900	     -0.26335900	      1.80425000	      0.45064000	     -0.26198700	      2.12271400	      0.07135200	     -0.15416500	      1.50296800	      0.14325800	     -0.33656800	      2.11841400	      0.07408200	     -0.22489200	      1.52154900	      0.14810400	     -0.26949200	      1.82327100	      1.43514000	     -0.21376000	      1.93407500	      1.35978500	     -0.14576000	      1.91343100	      1.37121700	     -0.30114600	      1.91099200	      1.36674300	     -0.22567400	      1.95137200	      1.16758300	     -0.25251300	      2.09106700	      0.59779100	     -0.06206600	      1.97410000	      0.54713700	     -0.34183400	      2.08228200	      0.66278100	     -0.13210000	      1.90669700	      0.62328100	     -0.36777900	      2.10705700	      0.58686900	     -0.15937100	      1.88023900	      0.54076300	     -0.36402300	      2.13848000	      0.15139700	     -0.09235900	      1.65919000	      0.15936100	     -0.30906400	      2.10918100	      0.20397800	     -0.15226100	      1.64103700	      0.23961200	     -0.31424900	      2.24422200	      0.04404400	     -0.21697900	      1.58384500	      0.04148000	     -0.28709900	   -106.48272567	    482.14719795	      4.37436977	      2.13383032	      0.00000000	     -0.18980737	     63.47556104	    215.81488142	     -6.72771314	      1.59263208	      0.00000000	     -0.28012759	      0.00000000	      1.08546436	      0.00000000	      0.00000000	      0.35277612	      0.00000000	      1.90203571	      0.87293518	     -0.24436453	      1.90632093	      0.85966456	     -0.18795837	      1.89113271	      0.85645503	     -0.29339164	      2.08554649	      0.48800728	     -0.20419765	      1.79311597	      0.45368311	     -0.31373292	      2.12131429	      0.07013521	     -0.19211993	      1.50947368	      0.13935216	     -0.29780385	      1.97560930	      0.95536101	     -0.25471231	      1.99039710	      0.95848596	     -0.15205801	      1.96082139	      0.95223600	     -0.35736662	      1.78171420	      0.98004538	     -0.19026373	      1.76938641	      0.98084116	     -0.27487019	      2.09858322	      0.49176279	     -0.14626506	      1.79040325	      0.45733941	     -0.37305847	      2.06620336	      0.49883863	     -0.26335859	      1.80424964	      0.45063990	     -0.26198724	      2.12271357	      0.07135200	     -0.15416519	      1.50296795	      0.14325835	     -0.33656812	      2.11841416	      0.07408155	     -0.22489204	      1.52154851	      0.14810359	     -0.26949200	      1.82327116	      1.43514037	     -0.21376014	      1.93407464	      1.35978520	     -0.14575963	      1.91343129	      1.37121737	     -0.30114588	      1.91099238	      1.36674273	     -0.22567359	      1.95137155	      1.16758299	     -0.25251317	      2.09106660	      0.59779102	     -0.06206561	      1.97409999	      0.54713732	     -0.34183395	      2.08228207	      0.66278118	     -0.13210016	      1.90669727	      0.62328106	     -0.36777934	      2.10705733	      0.58686906	     -0.15937120	      1.88023889	      0.54076290	     -0.36402327	      2.13848019	      0.15139712	     -0.09235860	      1.65918958	      0.15936132	     -0.30906379	      2.10918117	      0.20397788	     -0.15226060	      1.64103663	      0.23961167	     -0.31424913	      2.24422216	      0.04404445	     -0.21697915	      1.58384538	      0.04148009	     -0.28709859
      0.68333000	      1.96781775	      0.93463775	     -0.25617049	      5.12654598	     -2.55926053	      8.63382646	     20.15987044	      1.78409834	      4.71872356	    -21.79809019	     -3.91888832	    -17.40877409	     -6.26423912	      3.28705946	    -30.31561877	     -3.68384036	     -7.41671390	      6.95533902	      1.05787469	      0.00000000	      0.00000000	      0.00000000	      0.00000000	      2.02833311	      0.96377533	     -0.16615873	      1.99001907	      0.95476706	     -0.37544440	      1.97929498	      0.93558903	     -0.25791738	      1.81724819	      0.95548478	     -0.19105230	      1.79901543	      0.95230883	     -0.27725963	      1.92488071	      0.87909842	     -0.17627485	      1.90465355	      0.87112503	     -0.31351104	      1.91476713	      0.87511172	     -0.24489294	      2.16298601	      0.50756049	     -0.15755925	      2.10506327	      0.50725916	     -0.26331015	      2.16282396	      0.63526475	     -0.08870508	      2.12897959	      0.68843242	     -0.15838779	      2.15694991	      0.61247738	     -0.18303999	      2.12447277	      0.06994344	     -0.12811280	      2.10786791	      0.06492959	     -0.19442287	      2.15988973	      0.14712558	     -0.07458729	      2.12982706	      0.20141707	     -0.13441672	      2.09810437	      0.50214437	     -0.19293672	      2.12421153	      0.08668306	     -0.17196040	      2.23386877	      0.04508391	     -0.19705867	      1.83530460	      0.44395924	     -0.39752941	      1.82801941	      0.44992926	     -0.28972046	      2.00812428	      0.54687040	     -0.34893823	      1.94522430	      0.62228186	     -0.37949102	      1.91647279	      0.54040647	     -0.38077447	      1.50320109	      0.15325585	     -0.35342897	      1.52149470	      0.14917383	     -0.28614670	      1.66232106	      0.15166074	     -0.32559774	      1.64867657	      0.23506908	     -0.33133809	      1.81207837	      0.46516714	     -0.32224134	      1.52683306	      0.16135153	     -0.31443890	      1.57786605	      0.04159448	     -0.33532330	      1.94142680	      1.33821071	     -0.14481802	      1.92368413	      1.35228067	     -0.29881018	      1.83077758	      1.41427128	     -0.21445212	      1.91983434	      1.34642358	     -0.22424409	      1.96238561	      1.14817319	     -0.25398793	      1.91378600	      0.87511800	     -0.24418200	      1.91775100	      0.86141800	     -0.18649500	      1.90229300	      0.85772000	     -0.29187300	      2.09372900	      0.48845000	     -0.20468500	      1.80916900	      0.45336700	     -0.31510400	      2.12165400	      0.07008600	     -0.19227600	      1.52010000	      0.14411400	     -0.29929000	      1.98652700	      0.95707800	     -0.25382800	      2.00156200	      0.96067500	     -0.15133500	      1.97149300	      0.95348100	     -0.35632200	      1.79266200	      0.98125800	     -0.18994600	      1.78008700	      0.98176700	     -0.27456300	      2.10720000	      0.49198500	     -0.14683800	      1.80560400	      0.45759200	     -0.37434700	      2.07506300	      0.50003000	     -0.26365300	      1.82152500	      0.44974100	     -0.26357400	      2.12325300	      0.07131800	     -0.15433000	      1.51267300	      0.14908900	     -0.33776500	      2.11867800	      0.07404500	     -0.22494200	      1.53279800	      0.15287300	     -0.27114000	      1.83334200	      1.43629000	     -0.21265200	      1.94415400	      1.36110400	     -0.14451300	      1.92391700	      1.37279500	     -0.29986700	      1.92127800	      1.36816100	     -0.22444400	      1.96227700	      1.16916800	     -0.25158000	      2.10091400	      0.59837500	     -0.06239300	      1.98912700	      0.54857300	     -0.34489900	      2.09245400	      0.66349600	     -0.13198000	      1.92078100	      0.62413300	     -0.36961900	      2.11667000	      0.58750800	     -0.15949100	      1.89528500	      0.54121600	     -0.36599400	      2.14083000	      0.15098900	     -0.09266900	      1.66990700	      0.16169500	     -0.31399600	      2.11226600	      0.20416700	     -0.15244100	      1.65353000	      0.24242300	     -0.31681100	      2.24469100	      0.04352900	     -0.21710600	      1.58657400	      0.04154000	     -0.28703300	   -110.36187670	    516.32261665	      2.78926521	      2.13705420	      0.00000000	     -0.19068776	     43.40281746	    151.67417078	     -7.12800225	      1.59624500	      0.00000000	     -0.27848517	      0.00000000	      0.91154547	      0.00000000	      0.00000000	      0.15628589	      0.00000000	      1.91378617	      0.87511826	     -0.24418215	      1.91775060	      0.86141849	     -0.18649480	      1.90229321	      0.85772020	     -0.29187292	      2.09372854	      0.48844957	     -0.20468475	      1.80916882	      0.45336685	     -0.31510428	      2.12165380	      0.07008595	     -0.19227585	      1.52010000	      0.14411378	     -0.29929012	      1.98652732	      0.95707804	     -0.25382820	      2.00156164	      0.96067506	     -0.15133484	      1.97149301	      0.95348102	     -0.35632154	      1.79266191	      0.98125774	     -0.18994555	      1.78008711	      0.98176694	     -0.27456337	      2.10720038	      0.49198481	     -0.14683789	      1.80560386	      0.45759156	     -0.37434694	      2.07506323	      0.50002980	     -0.26365316	      1.82152498	      0.44974098	     -0.26357418	      2.12325335	      0.07131824	     -0.15432954	      1.51267302	      0.14908855	     -0.33776531	      2.11867762	      0.07404504	     -0.22494206	      1.53279769	      0.15287271	     -0.27114046	      1.83334160	      1.43629003	     -0.21265236	      1.94415390	      1.36110425	     -0.14451286	      1.92391741	      1.37279522	     -0.29986718	      1.92127800	      1.36816072	     -0.22444364	      1.96227705	      1.16916800	     -0.25157997	      2.10091448	      0.59837520	     -0.06239324	      1.98912704	      0.54857296	     -0.34489876	      2.09245420	      0.66349590	     -0.13198033	      1.92078102	      0.62413287	     -0.36961889	      2.11667037	      0.58750850	     -0.15949079	      1.89528501	      0.54121584	     -0.36599427	      2.14083028	      0.15098880	     -0.09266871	      1.66990674	      0.16169509	     -0.31399551	      2.11226583	      0.20416661	     -0.15244140	      1.65353036	      0.24242327	     -0.31681097	      2.24469113	      0.04352908	     -0.21710578	      1.58657360	      0.04153985	     -0.28703260
